<?xml version="1.0" encoding="UTF-8"?>
<svg width="90px" height="60px" viewBox="0 0 90 60" version="1.1" xmlns="http://www.w3.org/2000/svg" xmlns:xlink="http://www.w3.org/1999/xlink">
    <title>designer models</title>
    <defs>
        <rect id="path-1" x="0" y="0" width="90" height="60"></rect>
    </defs>
    <g id="Page-1" stroke="none" stroke-width="1" fill="none" fill-rule="evenodd">
        <g id="D_Navigation---megamenu_R6" transform="translate(-422.000000, -716.000000)">
            <g id="designer-models" transform="translate(422.000000, 716.000000)">
                <mask id="mask-2" fill="white">
                    <use xlink:href="#path-1"></use>
                </mask>
                <use id="Rectangle" fill="#F7F8FA" xlink:href="#path-1"></use>
                <g id="Group-12" mask="url(#mask-2)">
                    <g transform="translate(26.000014, 0.000000)">
                        <path d="M16.2122781,11.6979882 C16.2122781,11.6979882 16.15009,12.5697785 14.8425201,13.1923538 C13.5349502,13.8151602 12.1030039,14.0641441 11.5423857,14.562343 C10.9819986,15.0603108 11.0444179,15.8699129 11.2309824,16.8660796 C11.4180093,17.8624774 12.3519878,22.7813538 12.5385523,23.9643161 C12.7255792,25.1475097 12.3519878,26.330472 11.7916007,27.2644505 C11.2309824,28.198429 0.645815776,47.1894022 0.210036206,47.9990043 C-0.225743364,48.8083753 0.023240507,49.6177462 0.89503083,49.9291495 C1.76682115,50.2405527 8.80263836,49.1819667 13.8463534,47.9990043 C18.8898373,46.8158108 26.4240846,44.0141065 29.1636007,42.6441172 C31.903348,41.2743591 32.7751384,40.7761602 33.2109179,39.9667892 C33.6466975,39.1571871 33.1487298,38.5346118 32.712719,37.4138376 C32.2769394,36.2930634 29.1014125,27.8248376 28.8524287,26.7662516 C28.6034448,25.7078968 28.7900093,24.4003269 29.3503964,22.7189344 C29.9107835,21.0377731 34.0827082,8.33566559 34.3316921,6.96590753 C34.580676,5.59591828 34.0827082,4.97334301 33.1487298,4.78654731 C32.2147513,4.59975161 31.2183534,5.40912258 30.4714018,6.40528925 C29.7239878,7.4016871 25.8015093,11.5111925 24.9294878,12.1961871 C24.0579287,12.8811817 22.6257513,12.694386 22.0653642,12.0715796 C21.5049771,11.4490043 21.3181814,9.58104731 21.3803695,9.02066022 C21.4427889,8.46027312 20.8202136,7.2148914 20.8202136,7.2148914" id="Fill-1" fill="#975728"></path>
                        <polygon id="Fill-3" fill="#525151" points="16.5859158 3.11795034e-12 16.2745125 15.9763495 20.7578405 15.9763495 20.633233 0.0700483871"></polygon>
                        <polygon id="Fill-5" fill="#999999" points="14.718005 17.9245269 22.0654566 17.9245269 22.0654566 13.939629 14.718005 13.939629"></polygon>
                        <polygon id="Fill-7" fill="#999999" points="14.718005 26.3384247 22.0654566 26.3384247 22.0654566 22.8436344 14.718005 22.8436344"></polygon>
                        <path d="M21.6416986,27.5355817 L15.4529351,27.5355817 C15.1073169,27.5355817 14.8271233,27.8185495 14.8271233,28.1671731 C14.8271233,28.5162591 15.1073169,28.7989957 15.4529351,28.7989957 L21.6416986,28.7989957 C21.9870857,28.7989957 22.2672792,28.5162591 22.2672792,28.1671731 C22.2672792,27.8185495 21.9870857,27.5355817 21.6416986,27.5355817" id="Fill-8" fill="#999999"></path>
                        <path d="M21.7660749,30.8978812 L15.5775427,30.8978812 C15.2319244,30.8978812 14.9517308,31.1808489 14.9517308,31.5297038 C14.9517308,31.8785586 15.2319244,32.1612952 15.5775427,32.1612952 L21.7660749,32.1612952 C22.1116932,32.1612952 22.3918867,31.8785586 22.3918867,31.5297038 C22.3918867,31.1808489 22.1116932,30.8978812 21.7660749,30.8978812" id="Fill-9" fill="#999999"></path>
                        <path d="M16.3274303,17.9868769 L16.3274303,22.8435651 L22.0653873,22.8435651 L22.0653873,26.3383554 L22.0653873,29.7550059 L26.2370808,29.7550059 C26.2370808,29.7550059 33.0863335,7.96209731 33.3977367,7.09030699 C33.70914,6.21874785 33.5223443,5.7827371 33.0863335,5.5959414 C32.6505539,5.4091457 31.9033712,5.53375323 31.3429841,6.15632849 C30.782597,6.77913495 25.6145056,12.4451941 24.7427152,13.1923769 C23.8711561,13.9395597 22.9371776,14.2509629 22.1275755,14.3131511 L22.0653873,17.9244575 L16.3274303,17.9868769 Z" id="Fill-10" fill="#FFFFFF"></path>
                        <path d="M30.4090287,10.8263134 C30.4090287,11.2045285 30.1022491,11.5113081 29.7240341,11.5113081 C29.3455878,11.5113081 29.0390394,11.2045285 29.0390394,10.8263134 C29.0390394,10.4480984 29.3455878,10.1413188 29.7240341,10.1413188 C30.1022491,10.1413188 30.4090287,10.4480984 30.4090287,10.8263134" id="Fill-11" fill="#999999"></path>
                        <path d="M27.4201357,32.3702151 C27.4201357,32.9893226 26.918469,33.4909892 26.2993615,33.4909892 C25.6804851,33.4909892 25.1788185,32.9893226 25.1788185,32.3702151 C25.1788185,31.7513387 25.6804851,31.2494409 26.2993615,31.2494409 C26.918469,31.2494409 27.4201357,31.7513387 27.4201357,32.3702151" id="Fill-12" fill="#999999"></path>
                        <path d="M26.1748233,36.1429565 C26.1748233,36.762064 25.6731566,37.2637306 25.0540491,37.2637306 C24.4351728,37.2637306 23.9335061,36.762064 23.9335061,36.1429565 C23.9335061,35.5240801 24.4351728,35.0221823 25.0540491,35.0221823 C25.6731566,35.0221823 26.1748233,35.5240801 26.1748233,36.1429565" id="Fill-13" fill="#999999"></path>
                        <path d="M24.985041,40.0323296 C24.985041,40.6514371 24.4831432,41.1531038 23.8642669,41.1531038 C23.2453905,41.1531038 22.7434927,40.6514371 22.7434927,40.0323296 C22.7434927,39.4134532 23.2453905,38.9115554 23.8642669,38.9115554 C24.4831432,38.9115554 24.985041,39.4134532 24.985041,40.0323296" id="Fill-14" fill="#999999"></path>
                    </g>
                </g>
            </g>
        </g>
    </g>
</svg>