<?xml version="1.0" encoding="UTF-8"?>
<svg width="90px" height="60px" viewBox="0 0 90 60" version="1.1" xmlns="http://www.w3.org/2000/svg" xmlns:xlink="http://www.w3.org/1999/xlink">
    <title>es</title>
    <defs>
        <rect id="path-1" x="0" y="8.76358681e-05" width="90" height="60"></rect>
    </defs>
    <g id="Page-1" stroke="none" stroke-width="1" fill="none" fill-rule="evenodd">
        <g id="D_Navigation---megamenu_R6" transform="translate(-629.000000, -716.000000)">
            <g id="es" transform="translate(629.000000, 715.999912)">
                <mask id="mask-2" fill="white">
                    <use xlink:href="#path-1"></use>
                </mask>
                <use id="Rectangle" fill="#F7F8FA" xlink:href="#path-1"></use>
                <g id="Group-18" mask="url(#mask-2)">
                    <g transform="translate(26.999993, -2.000000)">
                        <path d="M14.9159945,10.2147019 C14.169629,12.0466202 13.2198023,12.2500814 12.0665142,12.1143554 C10.9129706,11.9786293 10.0988699,10.2147019 9.4204952,9.19713986 C8.74212054,8.17932227 7.38511561,7.77214411 6.36755362,8.72222648 C5.34973602,9.67179764 4.73935219,11.4359807 5.01054869,13.1999082 C5.2820008,14.9638357 6.8422114,18.1527589 7.31712478,19.5772435 C7.79229377,21.0022392 7.38511561,22.2232625 5.14601914,24.3943681 C2.90743388,26.5654738 1.07551558,28.7365794 0.46487614,31.5180689 C-0.145763296,34.2998139 -0.501053717,37.1789444 1.68589941,41.1523182 C3.85393779,45.0904186 7.78232519,47.5444785 11.7950621,48.4794802 C15.8849916,49.4323742 23.6648294,48.6182735 26.9245551,46.919014 C29.9478466,45.3432115 33.302146,41.5592407 34.0485115,38.099121 C34.7946214,34.6390013 34.5198464,30.9784875 32.826977,28.3294012 C31.1537892,25.7107319 29.7063002,24.462359 28.2815601,22.969628 C26.8568199,21.4771526 26.7210939,19.9844216 27.6031854,18.2204941 C28.4850214,16.4563111 29.8420263,13.8105476 29.7063002,11.639442 C29.5705742,9.46833636 28.2815601,8.45077437 26.8568199,8.04359621 C25.4320798,7.63667366 24.7534495,9.26487508 24.2785361,10.2826927 C23.8036227,11.3002547 22.989522,12.5212779 21.4290558,12.1143554 C19.8685896,11.7071772 19.5294023,10.0112406 19.5294023,10.0112406" id="Fill-1" fill="#9A1F2C"></path>
                        <path d="M20.6376272,30.6842866 L13.830365,30.6842866 C13.4502809,30.6842866 13.1420218,30.9925458 13.1420218,31.3726298 C13.1420218,31.7527139 13.4502809,32.0609731 13.830365,32.0609731 L20.6376272,32.0609731 C21.0177113,32.0609731 21.3257149,31.7527139 21.3257149,31.3726298 C21.3257149,30.9925458 21.0177113,30.6842866 20.6376272,30.6842866" id="Fill-4" fill="#999999"></path>
                        <path d="M20.5787359,27.3187406 L13.789366,27.8115463 C13.4103044,27.8391516 13.1253052,28.1688815 13.1526549,28.5479432 C13.1805158,28.9270048 13.5099902,29.2122596 13.8890518,29.1846543 L20.6786773,28.6918486 C21.057739,28.6642433 21.3427381,28.3347689 21.3151328,27.9554517 C21.2875275,27.57639 20.9577976,27.2911353 20.5787359,27.3187406" id="Fill-6" fill="#999999"></path>
                        <polygon id="Fill-8" fill="#999999" points="13.6270571 26.2261586 21.0942905 26.2261586 21.0942905 22.6303128 13.6270571 22.6303128"></polygon>
                        <polygon id="Fill-11" fill="#525151" points="15.2552074 3.57077331e-12 14.9160201 17.5901987 19.7331447 17.5901987 19.461437 3.57077331e-12"></polygon>
                        <polygon id="Fill-10" fill="#999999" points="13.6270571 17.4062656 21.0942905 17.4062656 21.0942905 13.8104198 13.6270571 13.8104198"></polygon>
                        <path d="M26.0425403,31.0432322 C26.0425403,31.4803161 25.6882723,31.8348397 25.2509328,31.8348397 C24.8138489,31.8348397 24.4595809,31.4803161 24.4595809,31.0432322 C24.4595809,30.6061483 24.8138489,30.2516247 25.2509328,30.2516247 C25.6882723,30.2516247 26.0425403,30.6061483 26.0425403,31.0432322" id="Fill-12" fill="#FFFFFF"></path>
                        <path d="M31.7868963,31.3598496 C31.7868963,31.9720227 31.2907677,32.4678956 30.6785946,32.4678956 C30.0669328,32.4678956 29.5705486,31.9720227 29.5705486,31.3598496 C29.5705486,30.7476765 30.0669328,30.2518036 30.6785946,30.2518036 C31.2907677,30.2518036 31.7868963,30.7476765 31.7868963,31.3598496" id="Fill-13" fill="#FFFFFF"></path>
                        <path d="M27.4446083,34.7972972 C27.4446083,35.4094703 26.9487353,35.9053432 26.3365623,35.9053432 C25.7246448,35.9053432 25.2285163,35.4094703 25.2285163,34.7972972 C25.2285163,34.1853798 25.7246448,33.6892512 26.3365623,33.6892512 C26.9487353,33.6892512 27.4446083,34.1853798 27.4446083,34.7972972" id="Fill-14" fill="#FFFFFF"></path>
                        <path d="M33.2793461,36.6066201 C33.2793461,37.2185375 32.7834731,37.7146661 32.1713001,37.7146661 C31.5593826,37.7146661 31.063254,37.2185375 31.063254,36.6066201 C31.063254,35.994447 31.5593826,35.498574 32.1713001,35.498574 C32.7834731,35.498574 33.2793461,35.994447 33.2793461,36.6066201" id="Fill-15" fill="#FFFFFF"></path>
                        <path d="M29.1634471,40.2702011 C29.1634471,40.8823742 28.6675742,41.3782471 28.0554011,41.3782471 C27.4434836,41.3782471 26.9470995,40.8823742 26.9470995,40.2702011 C26.9470995,39.658028 27.4434836,39.1621551 28.0554011,39.1621551 C28.6675742,39.1621551 29.1634471,39.658028 29.1634471,40.2702011" id="Fill-16" fill="#FFFFFF"></path>
                    </g>
                </g>
            </g>
        </g>
    </g>
</svg>