<?xml version="1.0" standalone="no"?>
<!DOCTYPE svg PUBLIC "-//W3C//DTD SVG 20010904//EN"
 "http://www.w3.org/TR/2001/REC-SVG-20010904/DTD/svg10.dtd">
<svg version="1.0" xmlns="http://www.w3.org/2000/svg"
 width="260.000000pt" height="260.000000pt" viewBox="0 0 260.000000 260.000000"
 preserveAspectRatio="xMidYMid meet">
<metadata>
Created by potrace 1.11, written by Peter Selinger 2001-2013
</metadata>
<g transform="translate(0.000000,260.000000) scale(0.100000,-0.100000)"
fill="#000000" stroke="none">
<path d="M1300 2451 c-118 -37 -229 -75 -246 -83 -16 -9 -49 -37 -73 -63 -81
-88 -76 -38 -74 -782 2 -727 0 -709 62 -746 54 -31 101 -22 226 43 63 33 125
60 138 60 13 0 32 -9 43 -21 18 -20 19 -45 24 -389 l5 -369 115 38 115 37 3
802 c2 639 0 802 -10 801 -7 0 -53 -15 -103 -33 l-90 -33 -6 -194 c-7 -221
-21 -320 -56 -399 -42 -95 -100 -140 -182 -140 -75 0 -72 -25 -69 606 3 554 3
559 25 600 26 48 54 69 131 95 73 25 104 24 130 -4 21 -22 22 -33 22 -176 0
-137 2 -152 16 -147 9 4 70 23 135 43 l119 37 0 173 c0 140 -3 180 -16 206
-34 66 -89 108 -141 106 -15 0 -125 -31 -243 -68z"/>
</g>
</svg>
