<?xml version="1.0" encoding="utf-8"?>
<!-- Generator: Adobe Illustrator 25.2.1, SVG Export Plug-In . SVG Version: 6.00 Build 0)  -->
<svg version="1.1" id="Layer_1" xmlns="http://www.w3.org/2000/svg" xmlns:xlink="http://www.w3.org/1999/xlink" x="0px" y="0px"
	 viewBox="0 0 451 437" style="enable-background:new 0 0 451 437;" xml:space="preserve">
<style type="text/css">
	.st0{fill:#FFFFFF;}
	.st1{fill:#FFFFFF;fill-opacity:0;stroke:#FFFFFF;stroke-width:0.5;stroke-opacity:0.3019;}
</style>
<g id="Home-Launch">
	<g id="Artboard" transform="translate(-840.000000, -658.000000)">
		<g id="Group-37" transform="translate(576.000000, 621.000000)">
			<g id="Group-2" transform="translate(265.200000, 37.440000)">
				<path id="_x32_021" class="st0" d="M283.8,241.7v-9.1h-23c2.4-2.6,5.5-5.4,8.6-8.2l0.7-0.7c7.3-6.8,14.6-14.6,14.6-23.7
					c0-11-7.8-16.8-19-16.8c-11.2,0-18,7.6-18,16.1v2.7h10.6v-2.1c0-4.3,2.9-7.6,8.2-7.6c5.1,0,7.7,3.3,7.7,7.9
					c0,6.1-3.7,10.2-26.7,32.2v9.4H283.8z M310.9,242.5c12.5,0,19.4-7.7,19.4-20v-19.4c0-12.3-6.9-20-19.4-20
					c-12.5,0-19.4,7.7-19.4,20v19.4C291.6,234.8,298.5,242.5,310.9,242.5z M310.9,233.4c-5.9,0-8.8-2.7-8.8-12.1v-17
					c0-9.4,2.9-12.1,8.8-12.1c5.9,0,8.8,2.7,8.8,12.1v17C319.7,230.7,316.9,233.4,310.9,233.4z M372.8,241.7v-9.1h-23
					c2.4-2.6,5.5-5.4,8.6-8.2l0.7-0.7c7.3-6.8,14.6-14.6,14.6-23.7c0-11-7.8-16.8-19-16.8c-11.2,0-18,7.6-18,16.1v2.7h10.6v-2.1
					c0-4.3,2.9-7.6,8.2-7.6c5.1,0,7.7,3.3,7.7,7.9c0,6.1-3.7,10.2-26.7,32.2v9.4H372.8z M406.5,241.7v-58.6h-6.3
					c-2.7,3.5-4.2,6.4-12.6,8.1v6.3h8.9v44.2H406.5z"/>
				<path id="_x32_020" class="st1" d="M283.8,181.7v-9.1h-23c2.4-2.6,5.5-5.4,8.6-8.2l0.7-0.7c7.3-6.8,14.6-14.6,14.6-23.7
					c0-11-7.8-16.8-19-16.8c-11.2,0-18,7.6-18,16.1v2.7h10.6v-2.1c0-4.3,2.9-7.6,8.2-7.6c5.1,0,7.7,3.3,7.7,7.9
					c0,6.1-3.7,10.2-26.7,32.2v9.4H283.8z M310.9,182.5c12.5,0,19.4-7.7,19.4-20v-19.4c0-12.3-6.9-20-19.4-20
					c-12.5,0-19.4,7.7-19.4,20v19.4C291.6,174.8,298.5,182.5,310.9,182.5z M310.9,173.4c-5.9,0-8.8-2.7-8.8-12.1v-17
					c0-9.4,2.9-12.1,8.8-12.1c5.9,0,8.8,2.7,8.8,12.1v17C319.7,170.7,316.9,173.4,310.9,173.4z M372.8,181.7v-9.1h-23
					c2.4-2.6,5.5-5.4,8.6-8.2l0.7-0.7c7.3-6.8,14.6-14.6,14.6-23.7c0-11-7.8-16.8-19-16.8c-11.2,0-18,7.6-18,16.1v2.7h10.6v-2.1
					c0-4.3,2.9-7.6,8.2-7.6c5.1,0,7.7,3.3,7.7,7.9c0,6.1-3.7,10.2-26.7,32.2v9.4H372.8z M399.9,182.5c12.5,0,19.4-7.7,19.4-20v-19.4
					c0-12.3-6.9-20-19.4-20s-19.4,7.7-19.4,20v19.4C380.5,174.8,387.4,182.5,399.9,182.5z M399.9,173.4c-5.9,0-8.8-2.7-8.8-12.1v-17
					c0-9.4,2.9-12.1,8.8-12.1c5.9,0,8.8,2.7,8.8,12.1v17C408.7,170.7,405.8,173.4,399.9,173.4z"/>
				<path id="_x32_024" class="st1" d="M283.8,425.7v-9.1h-23c2.4-2.6,5.5-5.4,8.6-8.2l0.7-0.7c7.3-6.8,14.6-14.6,14.6-23.7
					c0-11-7.8-16.8-19-16.8c-11.2,0-18,7.6-18,16.1v2.7h10.6v-2.1c0-4.3,2.9-7.6,8.2-7.6c5.1,0,7.7,3.3,7.7,7.9
					c0,6.1-3.7,10.2-26.7,32.2v9.4H283.8z M310.9,426.5c12.5,0,19.4-7.7,19.4-20v-19.4c0-12.3-6.9-20-19.4-20
					c-12.5,0-19.4,7.7-19.4,20v19.4C291.6,418.8,298.5,426.5,310.9,426.5z M310.9,417.4c-5.9,0-8.8-2.7-8.8-12.1v-17
					c0-9.4,2.9-12.1,8.8-12.1c5.9,0,8.8,2.7,8.8,12.1v17C319.7,414.7,316.9,417.4,310.9,417.4z M372.8,425.7v-9.1h-23
					c2.4-2.6,5.5-5.4,8.6-8.2l0.7-0.7c7.3-6.8,14.6-14.6,14.6-23.7c0-11-7.8-16.8-19-16.8c-11.2,0-18,7.6-18,16.1v2.7h10.6v-2.1
					c0-4.3,2.9-7.6,8.2-7.6c5.1,0,7.7,3.3,7.7,7.9c0,6.1-3.7,10.2-26.7,32.2v9.4H372.8z M413.1,425.7v-15.2h8.1v-8.2h-8.1v-34.4h-11
					l-24.5,33.3v9.3H403v15.2H413.1z M403,402.3h-16.6l16.4-22.6h0.2V402.3z"/>
				<path id="_x32_019" class="st1" d="M283.8,120.7v-9.1h-23c2.4-2.6,5.5-5.4,8.6-8.2l0.7-0.7c7.3-6.8,14.6-14.6,14.6-23.7
					c0-11-7.8-16.8-19-16.8c-11.2,0-18,7.6-18,16.1v2.7h10.6v-2.1c0-4.3,2.9-7.6,8.2-7.6c5.1,0,7.7,3.3,7.7,7.9
					c0,6.1-3.7,10.2-26.7,32.2v9.4H283.8z M310.9,121.5c12.5,0,19.4-7.7,19.4-20V82.1c0-12.3-6.9-20-19.4-20
					c-12.5,0-19.4,7.7-19.4,20v19.4C291.6,113.8,298.5,121.5,310.9,121.5z M310.9,112.4c-5.9,0-8.8-2.7-8.8-12.1v-17
					c0-9.4,2.9-12.1,8.8-12.1c5.9,0,8.8,2.7,8.8,12.1v17C319.7,109.7,316.9,112.4,310.9,112.4z M362.1,120.7V62.1h-6.3
					c-2.7,3.5-4.2,6.4-12.6,8.1v6.3h8.9v44.2H362.1z M399.9,121.5c12.5,0,19.4-7.7,19.4-20V82.1c0-12.3-6.9-20-19.4-20
					c-13.1,0-18.9,8.3-18.9,20.2c0,9.3,5.2,17.1,15.3,17.1c4.6,0,8.8-1.8,12.4-4.5v5.4c0,9.4-2.9,12.1-8.8,12.1
					c-3.9,0-7.1-2.9-7.3-6.8h-10.6C382.9,116,389.9,121.5,399.9,121.5z M399.9,91.3c-4.9,0-8.3-3-8.3-9.4c0-6.6,2.8-10.6,8.3-10.6
					c5.9,0,8.8,2.7,8.8,12.1v3.2C406,89,403.3,91.3,399.9,91.3z"/>
				<path id="_x32_023" class="st1" d="M283.8,364.7v-9.1h-23c2.4-2.6,5.5-5.4,8.6-8.2l0.7-0.7c7.3-6.8,14.6-14.6,14.6-23.7
					c0-11-7.8-16.8-19-16.8c-11.2,0-18,7.6-18,16.1v2.7h10.6v-2.1c0-4.3,2.9-7.6,8.2-7.6c5.1,0,7.7,3.3,7.7,7.9
					c0,6.1-3.7,10.2-26.7,32.2v9.4H283.8z M310.9,365.5c12.5,0,19.4-7.7,19.4-20v-19.4c0-12.3-6.9-20-19.4-20
					c-12.5,0-19.4,7.7-19.4,20v19.4C291.6,357.8,298.5,365.5,310.9,365.5z M310.9,356.4c-5.9,0-8.8-2.7-8.8-12.1v-17
					c0-9.4,2.9-12.1,8.8-12.1c5.9,0,8.8,2.7,8.8,12.1v17C319.7,353.7,316.9,356.4,310.9,356.4z M372.8,364.7v-9.1h-23
					c2.4-2.6,5.5-5.4,8.6-8.2l0.7-0.7c7.3-6.8,14.6-14.6,14.6-23.7c0-11-7.8-16.8-19-16.8c-11.2,0-18,7.6-18,16.1v2.7h10.6v-2.1
					c0-4.3,2.9-7.6,8.2-7.6c5.1,0,7.7,3.3,7.7,7.9c0,6.1-3.7,10.2-26.7,32.2v9.4H372.8z M399.7,365.5c10.4,0,18.8-5.8,18.8-17.2
					c0-6.5-2.2-11.5-8.3-13.9c4.6-2.3,7-7.5,7-12.6c0-10.2-7.5-15.7-17.9-15.7c-9.7,0-17.5,5.2-17.6,15.8h10.6c0.2-3.9,3-6.7,7-6.7
					c4.8,0,7.4,3,7.4,7c0,5.4-2.9,7.4-10.3,7.4v9.1c8,0.1,11.7,2.6,11.7,9c0,5-3,8.6-8.4,8.6c-5.9,0-8.6-2.7-8.6-8.6h-10.6
					C380.4,358.6,386.7,365.5,399.7,365.5z"/>
				<path id="_x32_018" class="st1" d="M283.8,59.7v-9.1h-23c2.4-2.6,5.5-5.4,8.6-8.2l0.7-0.7c7.3-6.8,14.6-14.6,14.6-23.7
					c0-11-7.8-16.8-19-16.8c-11.2,0-18,7.6-18,16.1v2.7h10.6v-2.1c0-4.3,2.9-7.6,8.2-7.6c5.1,0,7.7,3.3,7.7,7.9
					c0,6.1-3.7,10.2-26.7,32.2v9.4H283.8z M310.9,60.5c12.5,0,19.4-7.7,19.4-20V21.1c0-12.3-6.9-20-19.4-20
					c-12.5,0-19.4,7.7-19.4,20v19.4C291.6,52.8,298.5,60.5,310.9,60.5z M310.9,51.4c-5.9,0-8.8-2.7-8.8-12.1v-17
					c0-9.4,2.9-12.1,8.8-12.1c5.9,0,8.8,2.7,8.8,12.1v17C319.7,48.7,316.9,51.4,310.9,51.4z M362.1,59.7V1.1h-6.3
					c-2.7,3.5-4.2,6.4-12.6,8.1v6.3h8.9v44.2H362.1z M399.9,60.5c11,0,19.4-5.8,19.4-17.2c0-6.5-2.2-11.5-8.4-13.9
					c4.6-2.3,7-7.5,7-12.6c0-10.7-7.9-15.7-17.9-15.7S382,6.1,382,16.8c0,5,2.4,10.2,7,12.6c-6.2,2.4-8.4,7.4-8.4,13.9
					C380.5,54.7,388.9,60.5,399.9,60.5z M399.9,25c-4.1,0-7.4-3.2-7.4-7.3s3-7.4,7.4-7.4s7.4,3.4,7.4,7.4S404,25,399.9,25z
					 M399.9,51.4c-6.5,0-8.8-3.4-8.8-8.4c0-5.4,3.4-8.9,8.8-8.9c5.4,0,8.8,3.5,8.8,8.9C408.7,47.9,406.4,51.4,399.9,51.4z"/>
				<path id="_x32_022" class="st1" d="M283.8,303.7v-9.1h-23c2.4-2.6,5.5-5.4,8.6-8.2l0.7-0.7c7.3-6.8,14.6-14.6,14.6-23.7
					c0-11-7.8-16.8-19-16.8c-11.2,0-18,7.6-18,16.1v2.7h10.6v-2.1c0-4.3,2.9-7.6,8.2-7.6c5.1,0,7.7,3.3,7.7,7.9
					c0,6.1-3.7,10.2-26.7,32.2v9.4H283.8z M310.9,304.5c12.5,0,19.4-7.7,19.4-20v-19.4c0-12.3-6.9-20-19.4-20
					c-12.5,0-19.4,7.7-19.4,20v19.4C291.6,296.8,298.5,304.5,310.9,304.5z M310.9,295.4c-5.9,0-8.8-2.7-8.8-12.1v-17
					c0-9.4,2.9-12.1,8.8-12.1c5.9,0,8.8,2.7,8.8,12.1v17C319.7,292.7,316.9,295.4,310.9,295.4z M372.8,303.7v-9.1h-23
					c2.4-2.6,5.5-5.4,8.6-8.2l0.7-0.7c7.3-6.8,14.6-14.6,14.6-23.7c0-11-7.8-16.8-19-16.8c-11.2,0-18,7.6-18,16.1v2.7h10.6v-2.1
					c0-4.3,2.9-7.6,8.2-7.6c5.1,0,7.7,3.3,7.7,7.9c0,6.1-3.7,10.2-26.7,32.2v9.4H372.8z M417.3,303.7v-9.1h-23
					c2.4-2.6,5.5-5.4,8.6-8.2l0.7-0.7c7.3-6.8,14.6-14.6,14.6-23.7c0-11-7.8-16.8-19-16.8c-11.2,0-18,7.6-18,16.1v2.7h10.6v-2.1
					c0-4.3,2.9-7.6,8.2-7.6c5.1,0,7.7,3.3,7.7,7.9c0,6.1-3.7,10.2-26.7,32.2v9.4H417.3z"/>
			</g>
		</g>
	</g>
</g>
</svg>
