<?xml version="1.0" encoding="UTF-8"?>
<svg width="90px" height="60px" viewBox="0 0 90 60" version="1.1" xmlns="http://www.w3.org/2000/svg" xmlns:xlink="http://www.w3.org/1999/xlink">
    <title>sg</title>
    <defs>
        <rect id="path-1" x="0" y="0" width="90" height="60"></rect>
        <polygon id="path-3" points="6.83230568e-05 6.20162268 33.9957514 6.20162268 33.9957514 49.3439988 6.83230568e-05 49.3439988"></polygon>
        <polygon id="path-5" points="0 49.3439988 33.9958617 49.3439988 33.9958617 -1.20689655 0 -1.20689655"></polygon>
    </defs>
    <g id="Page-1" stroke="none" stroke-width="1" fill="none" fill-rule="evenodd">
        <g id="D_Navigation---megamenu_R6" transform="translate(-526.000000, -716.000000)">
            <g id="sg" transform="translate(526.000000, 716.000000)">
                <mask id="mask-2" fill="white">
                    <use xlink:href="#path-1"></use>
                </mask>
                <use id="Rectangle" fill="#F7F8FA" xlink:href="#path-1"></use>
                <g id="Group-15" mask="url(#mask-2)">
                    <g transform="translate(27.000000, -1.000000)">
                        <polygon id="Fill-16" stroke="none" fill="#525151" fill-rule="evenodd" points="14.3651743 0.627368975 14.4545873 17.4592171 19.9572719 17.4592171 19.5993676 0.562665393"></polygon>
                        <mask id="mask-4" fill="white">
                            <use xlink:href="#path-3"></use>
                        </mask>
                        <g id="Clip-2" stroke="none" fill="none"></g>
                        <path d="M19.8900859,9.15732641 C20.2257633,10.2982255 21.098171,11.9086687 22.8427337,12.2443461 C24.5878015,12.579771 25.6615146,10.9693277 25.9969394,10.2310395 C26.3323642,9.49300382 26.1982448,8.01642736 26.3992976,8.08361336 C26.6008556,8.15079936 27.4730107,8.82190159 28.7482817,10.4323449 C30.0233002,12.0430407 30.5600304,14.3917722 30.6272164,17.1431146 C30.6941498,19.8944569 29.352198,20.5655591 28.7482817,23.4510209 C28.1443655,26.3367352 28.2784849,26.67216 30.7613358,30.0946046 C33.2444393,33.5170492 34.116847,36.5368829 33.982475,39.6908361 C33.8483556,42.8450418 31.8350489,46.8042166 24.7891069,48.4818459 C17.7426598,50.1594752 10.2941071,49.1529481 6.06644085,47.4753188 C1.83852206,45.797437 0.764809013,43.1132806 0.160892781,40.0934469 C-0.443023451,37.0736131 0.697875596,33.5170492 2.8453017,31.1011317 C4.9927278,28.6852141 5.46227204,27.2091429 5.52945803,25.7997524 C5.59639145,24.3906145 3.98594816,21.2366614 3.51615135,19.2905407 C3.04635453,17.34442 3.22846394,14.1354046 3.71745676,12.1099742 C4.18725357,10.1638535 5.86488286,8.01642736 6.6701045,7.27839172 C7.47557872,6.54010349 8.28080036,6.00337326 8.61622519,6.27186466 C8.95165001,6.54010349 8.14668095,7.74818854 8.21361437,9.023207 C8.28080036,10.2982255 8.7503446,12.0430407 10.8308373,12.3112796 C12.9110774,12.579771 14.0519764,10.2982255 14.1860959,9.09014041" id="Fill-1" stroke="none" fill="#670F09" fill-rule="evenodd" mask="url(#mask-4)"></path>
                        <path d="M8.81755586,14.5929514 C8.45712572,14.5654203 10.4954377,17.6127851 10.6295571,19.4245338 C10.7636765,21.2365351 11.1662874,24.1222494 10.6295571,26.6722863 C10.0925743,29.2220707 9.75714949,30.6986471 9.75714949,30.6986471 C9.75714949,30.6986471 11.6360842,31.7051742 12.9111026,31.1684439 C14.1861211,30.6314611 16.4004806,29.2895092 18.8835841,29.3564427 C21.3666876,29.4236287 23.3797417,30.2288503 24.7219462,30.6986471 C26.0638981,31.1684439 27.4061025,31.2353774 28.4798156,30.6314611 C28.4798156,30.6314611 27.3389165,28.551221 27.0034917,26.9405252 C26.6680669,25.3300819 27.2717305,22.3102481 27.8758994,20.6998048 C28.4798156,19.089109 28.613935,16.7403775 28.2785102,15.1968676 C27.9430854,13.6536103 27.1376111,12.5127113 27.1376111,12.5127113 C27.1376111,12.5127113 26.6680669,14.458832 25.2586764,14.7942568 C23.8495386,15.1296816 22.0375373,14.458832 21.3666876,13.3851189 C20.6953328,12.3114059 19.6888058,11.3046262 19.6888058,11.3046262 L14.4543599,11.2376928 C14.4543599,11.2376928 12.9111026,13.0496941 12.2400004,13.7205437 C11.5691508,14.391646 10.5623711,14.7273234 8.81755586,14.5929514" id="Fill-4" stroke="none" fill="#FFFFFF" fill-rule="evenodd" mask="url(#mask-4)"></path>
                        <mask id="mask-6" fill="white">
                            <use xlink:href="#path-5"></use>
                        </mask>
                        <g id="Clip-7" stroke="none" fill="none"></g>
                        <polygon id="Fill-6" stroke="none" fill="#999999" fill-rule="evenodd" mask="url(#mask-6)" points="13.7165516 17.142963 20.4942547 17.142963 20.4942547 13.5192131 13.7165516 13.5192131"></polygon>
                        <polygon id="Fill-8" stroke="none" fill="#999999" fill-rule="evenodd" mask="url(#mask-6)" points="13.850671 26.1352783 20.6283742 26.1352783 20.6283742 22.5784617 13.850671 22.5784617"></polygon>
                        <path d="M20.8540282,27.1301362 L13.5524763,27.5191077 C13.1448139,27.5408295 12.8301006,27.8628677 12.8503069,28.2384525 C12.8702606,28.6137848 13.2170515,28.9007145 13.6247139,28.8789927 L20.9265183,28.4900211 C21.3341807,28.4680468 21.6486415,28.1460086 21.6286878,27.7706763 C21.608734,27.3950915 21.2619432,27.1084144 20.8540282,27.1301362" id="Fill-9" stroke="none" fill="#999999" fill-rule="evenodd" mask="url(#mask-6)"></path>
                        <path d="M27.2718568,17.2101238 C27.2718568,17.9143138 26.7010284,18.4851422 25.9968384,18.4851422 C25.2926483,18.4851422 24.7218199,17.9143138 24.7218199,17.2101238 C24.7218199,16.5059337 25.2926483,15.9351053 25.9968384,15.9351053 C26.7010284,15.9351053 27.2718568,16.5059337 27.2718568,17.2101238" id="Fill-10" stroke="none" fill="#999999" fill-rule="evenodd" mask="url(#mask-6)"></path>
                        <path d="M29.8891555,32.6447173 C29.8891555,33.3117783 29.3481314,33.8525498 28.6813231,33.8525498 C28.0140095,33.8525498 27.473238,33.3117783 27.473238,32.6447173 C27.473238,31.9776563 28.0140095,31.4366323 28.6813231,31.4366323 C29.3481314,31.4366323 29.8891555,31.9776563 29.8891555,32.6447173" id="Fill-11" stroke="none" fill="#FFFFFF" fill-rule="evenodd" mask="url(#mask-6)"></path>
                        <path d="M28.2784849,37.5434857 C28.2784849,38.2105467 27.7377134,38.7513182 27.0706525,38.7513182 C26.4033389,38.7513182 25.86282,38.2105467 25.86282,37.5434857 C25.86282,36.8764248 26.4033389,36.3356533 27.0706525,36.3356533 C27.7377134,36.3356533 28.2784849,36.8764248 28.2784849,37.5434857" id="Fill-12" stroke="none" fill="#FFFFFF" fill-rule="evenodd" mask="url(#mask-6)"></path>
                        <path d="M32.3153025,37.5434857 C32.3153025,38.2105467 31.7742784,38.7513182 31.10747,38.7513182 C30.4401565,38.7513182 29.899385,38.2105467 29.899385,37.5434857 C29.899385,36.8764248 30.4401565,36.3356533 31.10747,36.3356533 C31.7742784,36.3356533 32.3153025,36.8764248 32.3153025,37.5434857" id="Fill-13" stroke="none" fill="#FFFFFF" fill-rule="evenodd" mask="url(#mask-6)"></path>
                        <path d="M30.9562005,42.53783 C30.9562005,43.204891 30.4151764,43.7456625 29.748368,43.7456625 C29.0810545,43.7456625 28.540283,43.204891 28.540283,42.53783 C28.540283,41.8707691 29.0810545,41.3299976 29.748368,41.3299976 C30.4151764,41.3299976 30.9562005,41.8707691 30.9562005,42.53783" id="Fill-14" stroke="none" fill="#FFFFFF" fill-rule="evenodd" mask="url(#mask-6)"></path>
                        <path d="M27.0355692,42.1725251 C27.0355692,42.8398387 26.4947977,43.3806102 25.8277368,43.3806102 C25.1606758,43.3806102 24.6199043,42.8398387 24.6199043,42.1725251 C24.6199043,41.5054642 25.1606758,40.9646927 25.8277368,40.9646927 C26.4947977,40.9646927 27.0355692,41.5054642 27.0355692,42.1725251" id="Fill-15" stroke="none" fill="#FFFFFF" fill-rule="evenodd" mask="url(#mask-6)"></path>
                    </g>
                </g>
            </g>
        </g>
    </g>
</svg>